<svg xmlns="http://www.w3.org/2000/svg" viewBox="0 0 256 256" width="24" height="24">
  <g fill="none">
    <rect width="256" height="256" fill="#D33833" rx="60"/>
    <path fill="#fff" d="M168.5 66.5c-5.5 0-10 4.5-10 10s4.5 10 10 10s10-4.5 10-10s-4.5-10-10-10m-81 0c-5.5 0-10 4.5-10 10s4.5 10 10 10s10-4.5 10-10s-4.5-10-10-10M128 35c-51.2 0-93 41.8-93 93c0 35.1 19.7 65.6 48.5 81.3V190c0-8.3 6.7-15 15-15h59c8.3 0 15 6.7 15 15v19.3c28.8-15.7 48.5-46.2 48.5-81.3c0-51.2-41.8-93-93-93m0 156c-13.8 0-25-11.2-25-25h50c0 13.8-11.2 25-25 25m40.5-55h-81c-5.5 0-10-4.5-10-10s4.5-10 10-10h81c5.5 0 10 4.5 10 10s-4.5 10-10 10"/>
  </g>
</svg>
